<?xml version="1.0" encoding="UTF-8"?>
<svg width="18px" height="14px" viewBox="0 0 18 14" version="1.1" xmlns="http://www.w3.org/2000/svg" xmlns:xlink="http://www.w3.org/1999/xlink">
    <!-- Generator: Sketch 62 (91390) - https://sketch.com -->
    <title>Menu Icon 2</title>
    <desc>Created with Sketch.</desc>
    <defs>
        <path d="M20.2285714,17 L3.77142857,17 C3.06171429,17 3,17.447 3,18 C3,18.553 3.06171429,19 3.77142857,19 L20.2285714,19 C20.9382857,19 21,18.553 21,18 C21,17.447 20.9382857,17 20.2285714,17 Z M20.2285714,11 L3.77142857,11 C3.06171429,11 3,11.447 3,12 C3,12.553 3.06171429,13 3.77142857,13 L20.2285714,13 C20.9382857,13 21,12.553 21,12 C21,11.447 20.9382857,11 20.2285714,11 Z M3.77142857,7 L20.2285714,7 C20.9382857,7 21,6.553 21,6 C21,5.447 20.9382857,5 20.2285714,5 L3.77142857,5 C3.06171429,5 3,5.447 3,6 C3,6.553 3.06171429,7 3.77142857,7 Z" id="path-1"></path>
    </defs>
    <g id="Symbols" stroke="none" stroke-width="1" fill="none" fill-rule="evenodd">
        <g id="Icons/B-Roxhill-Drawn/Burger-Menu" transform="translate(-3.000000, -5.000000)">
            <mask id="mask-2" fill="white">
                <use xlink:href="#path-1"></use>
            </mask>
            <use id="Menu-Icon-2" fill="#1A1934" fill-rule="nonzero" xlink:href="#path-1"></use>
        </g>
    </g>
</svg>