<?xml version="1.0" encoding="UTF-8"?>
<svg width="16px" height="16px" viewBox="0 0 16 16" version="1.1" xmlns="http://www.w3.org/2000/svg" xmlns:xlink="http://www.w3.org/1999/xlink">
    <!-- Generator: Sketch 64 (93537) - https://sketch.com -->
    <title>MKfavicon</title>
    <desc>Created with Sketch.</desc>
    <defs>
        <path d="M11.1076737,1.21333333 L11.1076737,1.4665343 C10.8627081,1.47505176 10.6769238,1.50660509 10.550508,1.56138787 C10.423905,1.61636422 10.3401897,1.71760589 10.2993621,1.86511287 C10.2585345,2.01300701 10.2381207,2.24317211 10.2381207,2.555221 L10.2387521,9.05206293 C10.2397981,9.33338178 10.2421436,9.8452274 10.2457888,10.4475018 C10.5864877,10.4246841 10.908345,10.3012626 11.2115219,10.0802452 C11.5079902,9.86421135 11.8610178,9.52196418 12.2707921,9.05350368 L12.2707921,9.05350368 L15.2528926,14.1879856 C15.3588945,14.3651101 15.4650838,14.5130042 15.571273,14.6308937 C15.6772749,14.7491703 15.8201715,14.8587358 15.9999628,14.9601711 L15.9999628,14.9601711 L15.9999628,15.2131785 C15.6570484,15.1963371 15.2914728,15.1858839 14.9037979,15.1816251 C14.5159357,15.17756 14.1464271,15.175237 13.7954596,15.175237 C13.6076152,15.175237 13.3748229,15.17756 13.0974574,15.1816251 C12.8197174,15.1858839 12.4685625,15.1963371 12.0441802,15.2131785 L12.0441802,15.2131785 L12.0441802,14.9601711 C12.4279222,14.9433297 12.6504139,14.8968708 12.7116553,14.8207944 C12.7728967,14.7449116 12.7423697,14.6014697 12.6198868,14.3904689 L12.6198868,14.3904689 L10.8440735,11.2891443 C10.7624183,11.137185 10.6888162,11.0233607 10.6236419,10.9472843 C10.558093,10.8714014 10.4949787,10.8166186 10.4337373,10.7827424 C10.3724959,10.7492532 10.2929008,10.7279596 10.194952,10.7194421 L10.2475276,10.7258295 C10.2580456,12.3576645 10.2773839,14.4597739 10.3055424,14.5549721 C10.3503029,14.7069314 10.4342055,14.8081731 10.5566883,14.8586971 C10.6789839,14.9094147 10.8627081,14.943291 11.1076737,14.9601324 L11.1076737,15.2133333 C10.8544676,15.196492 10.5321543,15.1858452 10.1401719,15.1815864 C9.74818946,15.1775213 9.34815388,15.1751983 8.94006514,15.1751983 C8.49920196,15.1751983 8.08474561,15.1775213 7.69707068,15.1815864 C7.30920846,15.1858452 6.99682113,15.196492 6.76009595,15.2133333 L6.76009595,14.9601324 C7.03764873,14.943291 7.24796706,14.9094147 7.39086367,14.8586971 C7.53357299,14.8081731 7.62964895,14.7069314 7.6785297,14.5549721 C7.7260149,14.4079147 7.75052339,9.47186895 7.75205517,8.87812174 L7.75213176,1.25572707 C7.87461456,1.25572707 8.07273612,1.25333154 8.2434676,1.25213377 L8.94006514,1.25146834 C9.34815388,1.25146834 9.74818946,1.24720961 10.1401719,1.23869215 C10.5321543,1.23036826 10.8544676,1.2218508 11.1076737,1.21333333 Z M3.55158957,1.21337205 L6.0149173,6.95259386 L4.80057708,10.1627097 L4.6046795,10.1627097 L1.15118879,2.0360816 L1.15118879,7.69438751 C1.15118879,8.25983094 1.17347542,8.69247937 1.21842323,8.99194565 C1.26318377,9.29160551 1.37349321,9.50667146 1.54916426,9.63733709 C1.72464804,9.76838989 2.00426093,9.86343704 2.38819021,9.92228497 L2.38819021,10.1754859 C2.22469252,10.1586446 2.01250136,10.1481913 1.75124216,10.143739 C1.48979569,10.1396739 1.24501736,10.1373509 1.01653262,10.1373509 C0.836741343,10.1373509 0.653017135,10.1396739 0.465359994,10.143739 C0.277515569,10.1481913 0.122445596,10.1586446 -3.72093023e-05,10.1754859 L-3.72093023e-05,9.92228497 C0.252981552,9.86343704 0.440825976,9.77245504 0.563308781,9.65011329 C0.685791586,9.52796512 0.767259507,9.3316763 0.808274391,9.06144041 C0.849101993,8.79159168 0.869515794,8.4203077 0.869515794,7.94758847 L0.869515794,2.55525972 C0.869515794,2.24301725 0.849101993,2.01304573 0.808274391,1.86515159 C0.767259507,1.71764461 0.683731478,1.61640294 0.557128456,1.56142658 C0.430525434,1.50664381 0.244928401,1.47509048 -3.72093023e-05,1.46657301 L-3.72093023e-05,1.21337205 C0.122445596,1.22188951 0.277515569,1.2302134 0.465359994,1.23853728 C0.653017135,1.24705475 0.836741343,1.25131348 1.01653262,1.25131348 C1.48979569,1.25131348 1.94301952,1.24705475 2.37582956,1.23853728 C2.80845231,1.2302134 3.20043474,1.22188951 3.55158957,1.21337205 Z M15.6202474,6.25110331 L15.6202474,6.49152807 C15.3425073,6.56760451 15.0342402,6.70678761 14.6956333,6.90946452 C14.3566518,7.11194786 13.9953837,7.43696653 13.611829,7.88393979 L13.611829,7.88393979 L13.3224774,8.22367044 L13.1567324,7.93814183 C13.256554,7.75579068 13.3133006,7.58776435 13.3239757,7.43464358 C13.3442022,7.14350119 13.2586141,6.91565904 13.0668367,6.75111713 C12.8748721,6.58657522 12.6239134,6.50023912 12.3135862,6.49152807 L12.3135862,6.49152807 L12.3135862,6.25110331 C12.6565006,6.25962077 12.9728209,6.26813823 13.2627343,6.27646212 C13.5524604,6.28497958 13.9260892,6.28923831 14.3832459,6.28923831 C14.8812303,6.28923831 15.2936266,6.27646212 15.6202474,6.25110331 L15.6202474,6.25110331 Z M13.753115,1.21685647 C14.0080066,1.21685647 14.2100845,1.28267323 14.3591614,1.41450034 C14.5082383,1.54632744 14.5827768,1.72732354 14.5827768,1.95748864 C14.5827768,2.1506802 14.5191007,2.32432031 14.3915613,2.47821539 C14.2640219,2.63249763 14.0404065,2.80613774 13.7207151,2.99913572 L14.8361701,4.21868164 C14.9580911,3.99606611 15.0479867,3.7324119 15.1054825,3.42791258 L15.3264759,3.50031102 C15.2545594,3.86036743 15.1466846,4.15944655 15.0032262,4.39696764 L15.5635757,5.00964428 L15.4019508,5.19335048 L14.8577076,4.60293539 C14.7031995,4.78877096 14.5200371,4.92872837 14.3080333,5.02358194 C14.0960294,5.11824194 13.8608025,5.16566872 13.6021652,5.16566872 C13.3650655,5.16566872 13.1530616,5.12482361 12.9663409,5.04293982 C12.7796202,4.96144318 12.6341016,4.84626384 12.5299725,4.69778896 C12.4256561,4.54912051 12.3735915,4.38012629 12.3735915,4.1908063 C12.3735915,3.96451278 12.4471936,3.75738355 12.594585,3.56980578 C12.7417891,3.38242158 12.9933096,3.18109971 13.3489592,2.9656466 L13.343528,2.95441903 C13.15662,2.75406506 13.0292678,2.58603873 12.9609097,2.45053363 C12.8927388,2.31483495 12.8586534,2.16926376 12.8586534,2.01323931 C12.8586534,1.77184665 12.9393722,1.57884867 13.1009971,1.43405179 C13.2628092,1.28925491 13.480057,1.21685647 13.753115,1.21685647 Z M13.5051529,3.12709125 C13.1745991,3.3276388 12.9476126,3.50398901 12.8236316,3.65633546 C12.6996505,3.80848833 12.63766,3.97922476 12.63766,4.16854475 C12.63766,4.39522543 12.7283047,4.57893163 12.9097815,4.72005051 C13.0910711,4.8611694 13.3255489,4.93163205 13.6130276,4.93163205 C14.0728063,4.93163205 14.4336999,4.76263783 14.6958955,4.42484297 L13.5051529,3.12709125 Z M13.753115,1.43405179 C13.5517862,1.43405179 13.3946561,1.48689878 13.2815375,1.59278634 C13.1684188,1.69848031 13.1118594,1.83863131 13.1118594,2.01323931 C13.1118594,2.13577464 13.1423865,2.25366408 13.2034406,2.36690763 C13.2644947,2.48015118 13.3847302,2.63520773 13.5645214,2.83188371 C13.8626753,2.65359771 14.0673752,2.50241273 14.1788083,2.37813519 C14.2900541,2.25366408 14.3456771,2.11544887 14.3456771,1.96310242 C14.3456771,1.79972198 14.2936125,1.67079856 14.1894834,1.57613857 C14.085167,1.48128499 13.9398357,1.43405179 13.753115,1.43405179 Z" id="path-1"></path>
    </defs>
    <g id="MKfavicon" stroke="none" stroke-width="1" fill="none" fill-rule="evenodd">
        <mask id="mask-2" fill="white">
            <use xlink:href="#path-1"></use>
        </mask>
        <use id="M-&amp;-K" fill="#1D1D1B" xlink:href="#path-1"></use>
        <rect id="Colour" fill="#1C2955" mask="url(#mask-2)" x="0" y="0" width="16" height="16"></rect>
    </g>
</svg>